<svg width="9" height="11" viewBox="0 0 9 11" fill="none" xmlns="http://www.w3.org/2000/svg">
<path fill-rule="evenodd" clip-rule="evenodd" d="M0.604156 4.72881C0.604156 2.62054 2.36594 0.916504 4.49699 0.916504C6.63404 0.916504 8.39582 2.62054 8.39582 4.72881C8.39582 5.7912 8.00945 6.7775 7.37351 7.61348C6.67194 8.53562 5.80723 9.33905 4.83391 9.9697C4.61114 10.1154 4.4101 10.1264 4.16561 9.9697C3.18674 9.33905 2.32203 8.53562 1.62647 7.61348C0.990066 6.7775 0.604156 5.7912 0.604156 4.72881ZM3.214 4.84753C3.214 5.5538 3.79033 6.10929 4.49698 6.10929C5.20409 6.10929 5.78596 5.5538 5.78596 4.84753C5.78596 4.14676 5.20409 3.56424 4.49698 3.56424C3.79033 3.56424 3.214 4.14676 3.214 4.84753Z" fill="black" fill-opacity="0.5"/>
</svg>
